# xmcd
#
# Track frame offsets:
# 150
# 13902
# 29975
# 40432
# 62955
# 99932
# 110560
# 132655
# 151140
# 169820
# 203732
# 221940
# 259757
#
# Disc length: 3704 seconds
#
#
# Revision: 0
# Processed by: cddbd v1.5PL3 Copyright (c) Steve Scherf et al.
# Submitted via: FreeRIP 2.70 
#
DISCID=c80e760d
DTITLE=Blues 'N' Trouble - Bag Full Of Boogie
DYEAR=1994
DGENRE=Blues
TTITLE0=Bag Full Of Boogie
TTITLE1=Riding In My Cadillac
TTITLE2=Deep Blue Feeling
TTITLE3=You Got Me Spinnin'
TTITLE4=Blue Because Of You
TTITLE5=Breaking The Ice
TTITLE6=Good Morning Little School Girl
TTITLE7=Serenade For A Wealthy Widow
TTITLE8=Slim's Chance
TTITLE9=Drugstore Woman
TTITLE10=Lookin' For My Baby
TTITLE11=Lowdown
TTITLE12=Down In Dallas
EXTD=
EXTT0=
EXTT1=
EXTT2=
EXTT3=
EXTT4=
EXTT5=
EXTT6=
EXTT7=
EXTT8=
EXTT9=
EXTT10=
EXTT11=
EXTT12=
PLAYORDER=
